<?xml version="1.0" encoding="UTF-8" standalone="no"?>
<svg width="30px" height="30px" viewBox="0 0 30 30" version="1.1" xmlns="http://www.w3.org/2000/svg" xmlns:xlink="http://www.w3.org/1999/xlink" xmlns:sketch="http://www.bohemiancoding.com/sketch/ns">
    <!-- Generator: Sketch 3.3.3 (12081) - http://www.bohemiancoding.com/sketch -->
    <title>Lesson Plan Icon</title>
    <desc>Created with Sketch.</desc>
    <defs></defs>
    <g id="Page-1" stroke="none" stroke-width="1" fill-rule="evenodd" sketch:type="MSPage">
        <g id="Desktop-Home-01" sketch:type="MSArtboardGroup" transform="translate(-879.000000, -94.000000)" >
            <g id="Sub-Navigation" sketch:type="MSLayerGroup" transform="translate(0.000000, 79.000000)">
                <g id="Content-Types-Dropdown" transform="translate(719.000000, 15.000000)" sketch:type="MSShapeGroup">
                    <g id="Lesson-Plan-Icon" transform="translate(160.000000, 0.000000)">
                        <path d="M15,1.66666667 C22.3638889,1.66666667 28.3333333,7.6362963 28.3333333,15 C28.3333333,22.3638889 22.3638889,28.3333333 15,28.3333333 C7.6362963,28.3333333 1.66666667,22.3638889 1.66666667,15 C1.66666667,7.6362963 7.6362963,1.66666667 15,1.66666667 M15,0 C6.72907407,0 0,6.72907407 0,15 C0,23.2711111 6.72907407,30 15,30 C23.2711111,30 30,23.2711111 30,15 C30,6.72907407 23.2711111,0 15,0" id="Fill-1"></path>
                        <path d="M22.9166667,17.9166667 L13.3333333,17.9166667 C12.8731481,17.9166667 12.5,17.5435185 12.5,17.0833333 C12.5,16.6231481 12.8731481,16.25 13.3333333,16.25 L22.9166667,16.25 C23.3768519,16.25 23.75,16.6231481 23.75,17.0833333 C23.75,17.5435185 23.3768519,17.9166667 22.9166667,17.9166667" id="Fill-2"></path>
                        <path d="M22.9166667,13.75 L13.3333333,13.75 C12.8731481,13.75 12.5,13.3768519 12.5,12.9166667 C12.5,12.4564815 12.8731481,12.0833333 13.3333333,12.0833333 L22.9166667,12.0833333 C23.3768519,12.0833333 23.75,12.4564815 23.75,12.9166667 C23.75,13.3768519 23.3768519,13.75 22.9166667,13.75" id="Fill-3"></path>
                        <path d="M21.25,22.0833333 L13.3333333,22.0833333 C12.8731481,22.0833333 12.5,21.7101852 12.5,21.25 C12.5,20.7898148 12.8731481,20.4166667 13.3333333,20.4166667 L21.25,20.4166667 C21.7101852,20.4166667 22.0833333,20.7898148 22.0833333,21.25 C22.0833333,21.7101852 21.7101852,22.0833333 21.25,22.0833333" id="Fill-4"></path>
                        <path d="M10.4166667,12.9166667 C10.4166667,13.607037 9.85703704,14.1666667 9.16666667,14.1666667 C8.4762963,14.1666667 7.91666667,13.607037 7.91666667,12.9166667 C7.91666667,12.2262963 8.4762963,11.6666667 9.16666667,11.6666667 C9.85703704,11.6666667 10.4166667,12.2262963 10.4166667,12.9166667" id="Fill-5"></path>
                        <path d="M10.4166667,17.0833333 C10.4166667,17.7737037 9.85703704,18.3333333 9.16666667,18.3333333 C8.4762963,18.3333333 7.91666667,17.7737037 7.91666667,17.0833333 C7.91666667,16.392963 8.4762963,15.8333333 9.16666667,15.8333333 C9.85703704,15.8333333 10.4166667,16.392963 10.4166667,17.0833333" id="Fill-6"></path>
                        <path d="M21.25,9.58333333 L13.3333333,9.58333333 C12.8731481,9.58333333 12.5,9.21018519 12.5,8.75 C12.5,8.28981481 12.8731481,7.91666667 13.3333333,7.91666667 L21.25,7.91666667 C21.7101852,7.91666667 22.0833333,8.28981481 22.0833333,8.75 C22.0833333,9.21018519 21.7101852,9.58333333 21.25,9.58333333" id="Fill-7"></path>
                        <path d="M10.4166667,8.75 C10.4166667,9.44037037 9.85703704,10 9.16666667,10 C8.4762963,10 7.91666667,9.44037037 7.91666667,8.75 C7.91666667,8.05962963 8.4762963,7.5 9.16666667,7.5 C9.85703704,7.5 10.4166667,8.05962963 10.4166667,8.75" id="Fill-8"></path>
                        <path d="M10.4166667,21.25 C10.4166667,21.9403704 9.85703704,22.5 9.16666667,22.5 C8.4762963,22.5 7.91666667,21.9403704 7.91666667,21.25 C7.91666667,20.5596296 8.4762963,20 9.16666667,20 C9.85703704,20 10.4166667,20.5596296 10.4166667,21.25" id="Fill-9"></path>
                    </g>
                </g>
            </g>
        </g>
    </g>
</svg>
